<svg width="50" height="50" viewBox="0 0 50 50" fill="none" xmlns="http://www.w3.org/2000/svg">
    <path d="M10.0418 45.1448C14.86 40.3651 23.8702 33.8918 23.8588 23.1928C23.8584 22.8041 23.9567 22.4206 24.1477 22.082C26.2965 18.2717 29.3747 10.3342 29.3747 19.8306C29.3747 39.8323 34.0654 41.8361 37.777 44.4404C39.0797 45.3544 38.3103 46.9995 36.7189 46.9995H10.8246C10.3526 46.9995 9.93354 46.6974 9.78427 46.2496C9.6549 45.8615 9.75137 45.433 10.0418 45.1448Z"
          fill="#FAFAFA"></path>
    <path d="M20.165 11.2551C19.3301 12.925 20.7206 14.5249 22.1124 15.5383C22.8304 16.0612 23.8053 15.8757 24.3901 15.2072C26.4539 12.8479 29.2273 9.28495 28.9139 8.03165C28.4534 6.1897 23.3885 1.58483 24.7695 3.42678C26.1506 5.26872 21.5465 8.49213 20.165 11.2551Z"
          fill="#FAFAFA"></path>
</svg>